<svg width="24" height="24" viewBox="0 0 24 24" fill="none" xmlns="http://www.w3.org/2000/svg">
<g clip-path="url(#clip0)">
<path d="M9.62383 19.2911L8.62882 19.8881C8.10982 20.2001 7.51681 20.3642 6.91583 20.3642C5.79984 20.3642 4.76484 19.8092 4.14483 18.8801C3.98883 18.6461 3.86883 18.3972 3.77682 18.1401C3.19881 18.7711 2.86084 19.6051 2.86084 20.5001C2.86084 22.4301 4.43081 24.0001 6.36083 24.0001C8.29085 24.0001 9.86083 22.4301 9.86083 20.5001C9.86083 20.0831 9.76984 19.6771 9.62383 19.2911Z" fill="#EF5479"/>
<path d="M21.5577 3.04013L14.5578 0.0401464C14.3518 -0.0478375 14.1118 0.0121622 13.9708 0.187145L11.9708 2.68712C11.8768 2.8051 11.8408 2.95913 11.8727 3.10711C11.9048 3.2551 12.0017 3.37913 12.1377 3.44709L19.6907 7.22309C19.9027 7.32907 20.1287 7.38307 20.3607 7.38307C20.7456 7.38307 21.1257 7.22909 21.4047 6.96007C21.6987 6.67606 21.8616 6.29309 21.8616 5.8821V3.50011C21.8607 3.29911 21.7417 3.11911 21.5577 3.04013Z" fill="#EF5479"/>
<path d="M5.86035 20.1709V21.4999C5.86035 21.7759 6.08437 21.9999 6.36036 21.9999C6.63636 21.9999 6.86038 21.7759 6.86038 21.4999V20.3579C6.51336 20.3519 6.18135 20.2789 5.86035 20.1709Z" fill="#EF5479"/>
<path d="M19.2428 8.11803L10.8338 3.91309L5.83983 5.78606C5.31282 5.98307 4.86282 6.35807 4.57285 6.84107L2.49686 10.301C2.05488 11.038 2.01987 11.937 2.40485 12.705L3.87784 15.651C4.14685 15.034 4.58082 14.533 5.14482 14.21C5.88881 13.783 6.45482 13.442 6.88982 13.166C6.86784 13.153 6.85181 13.13 6.82884 13.119C6.73884 12.573 6.47282 12.091 6.22083 11.738C6.98582 11.409 8.00882 10.816 8.52781 10.211C8.92681 10.445 9.55479 10.746 10.3398 10.9C9.75579 11.623 9.16081 12.518 8.94481 13.114C8.76181 13.197 8.48881 13.339 8.06783 13.583C7.53983 13.953 6.77582 14.426 5.64183 15.078C5.12982 15.372 4.77183 15.895 4.63285 16.55C4.60285 16.691 4.59085 16.832 4.58687 16.973C4.58588 17.018 4.58987 17.062 4.59085 17.107C4.59385 17.205 4.60187 17.302 4.61785 17.399C4.62587 17.447 4.63487 17.494 4.64485 17.542C4.66683 17.638 4.69585 17.733 4.72983 17.826C4.74483 17.867 4.75782 17.908 4.77483 17.949C4.83085 18.079 4.89582 18.207 4.97682 18.327C5.07183 18.47 5.18682 18.592 5.3048 18.707C5.3768 18.774 5.45381 18.835 5.5328 18.892C5.5718 18.9211 5.61178 18.9481 5.65181 18.9751C6.10083 19.2571 6.64082 19.3821 7.1698 19.3321C7.23482 19.3251 7.30082 19.3191 7.36579 19.306C7.4518 19.2901 7.53679 19.27 7.62079 19.244C7.78878 19.19 7.9558 19.128 8.11377 19.033L11.5497 16.9721C12.0877 16.841 14.7607 16.0411 16.7857 12.7651C17.9687 10.8521 18.7647 9.21813 19.2467 8.12211C19.2458 8.11906 19.2448 8.11803 19.2428 8.11803Z" fill="#EF5479"/>
</g>
<defs>
<clipPath id="clip0">
<rect width="24" height="24" fill="white"/>
</clipPath>
</defs>
</svg>
