<svg width="24" height="24" viewBox="0 0 24 24" fill="none" xmlns="http://www.w3.org/2000/svg">
<path fill-rule="evenodd" clip-rule="evenodd" d="M18.2598 5.84013H20.6233C22.2337 5.84013 23.5398 7.08381 23.5398 8.68989V19.7328C23.5398 21.3388 22.2337 22.6401 20.6233 22.6401H3.41576C1.80488 22.6401 0.499756 21.3388 0.499756 19.7332V8.68989C0.499756 7.08381 1.80488 5.84013 3.41576 5.84013H5.77976V4.33165C5.77976 2.53837 7.19432 1.38013 8.99336 1.38013H15.0466C16.8447 1.38013 18.2598 2.53837 18.2598 4.33165V5.84013ZM8.99336 3.00013C8.31992 3.00013 7.69976 3.66013 7.69976 4.33165V5.84013H16.3398V4.33165C16.3398 3.66013 15.7182 3.00013 15.0466 3.00013H8.99336ZM14.541 9.03012C13.7528 9.03012 13.0549 9.24616 12.4532 9.67824L14.908 12.1507C15.1126 12.3607 15.2389 12.6128 15.2871 12.9128C15.3352 13.2129 15.275 13.4829 15.1066 13.729C14.8599 14.065 14.529 14.2331 14.1078 14.2331C13.7769 14.2331 13.5061 14.119 13.2715 13.897L11.1295 11.7846C10.6963 12.1987 9.55916 13.3149 7.71805 15.1632C7.60373 15.2773 7.54356 15.4153 7.54356 15.5833C7.54356 15.7513 7.60373 15.8954 7.71805 16.0154C7.82635 16.1414 7.97075 16.2014 8.13922 16.2014C8.28964 16.2014 8.42802 16.1354 8.56039 16.0154L11.3521 13.2489C11.4845 13.1169 11.6289 13.1169 11.7793 13.2489C11.9297 13.3809 11.9297 13.5189 11.7793 13.669L9.01164 16.4295C8.87927 16.5615 8.81309 16.7115 8.81309 16.8795C8.81309 17.0476 8.87326 17.1856 8.99359 17.2996C9.11994 17.4136 9.26434 17.4677 9.43281 17.4677C9.51166 17.4696 9.5901 17.4557 9.66348 17.4268C9.73686 17.398 9.80368 17.3547 9.86 17.2996L12.6217 14.5151C12.7721 14.3651 12.9045 14.3651 13.0428 14.5151C13.2053 14.6651 13.2053 14.8152 13.0428 14.9652L10.2812 17.7197C10.1669 17.8337 10.1127 17.9777 10.1127 18.1458C10.1103 18.2236 10.124 18.3011 10.153 18.3734C10.182 18.4456 10.2256 18.5112 10.2812 18.5659C10.3955 18.6799 10.5339 18.7339 10.7023 18.7339C10.7813 18.7369 10.8601 18.7235 10.9336 18.6945C11.0071 18.6656 11.0738 18.6218 11.1295 18.5659L13.8912 15.8114C14.0236 15.6613 14.1619 15.6613 14.3124 15.8114C14.4628 15.9614 14.4628 16.0994 14.3124 16.2314L11.5507 18.9859C11.4364 19.1 11.3822 19.244 11.3822 19.412C11.3798 19.4898 11.3935 19.5673 11.4225 19.6396C11.4515 19.7119 11.4951 19.7774 11.5507 19.8321C11.665 19.9461 11.8034 20.0001 11.9719 20.0001C12.1403 20.0001 12.2847 19.9461 12.3991 19.8321L16.9657 15.2773C17.5494 14.7132 17.8863 13.915 17.9826 12.8948C18.0728 11.8746 17.8141 10.9805 17.1944 10.2123C16.8935 9.89428 16.4844 9.61823 15.967 9.38418C15.4495 9.14414 14.9742 9.03012 14.541 9.03012ZM11.1295 10.9145L13.6926 13.4769C13.807 13.5849 13.9453 13.645 14.1078 13.645C14.2883 13.645 14.4267 13.5849 14.541 13.4769C14.6553 13.3629 14.7095 13.2189 14.7095 13.0509C14.7095 12.8828 14.6553 12.7448 14.541 12.6308L11.9719 10.0683C11.2799 9.36018 10.4316 9.00012 9.43281 9.00012C8.44005 9.00012 7.58568 9.36018 6.86969 10.0683C6.23192 10.8364 5.94312 11.7546 6.0093 12.8108C6.07548 13.873 6.36429 14.6531 6.86969 15.1632L11.1295 10.9145Z" fill="white"/>
</svg>
