<svg width="24" height="24" viewBox="0 0 24 24" fill="none" xmlns="http://www.w3.org/2000/svg">
<path d="M15.092 9.3913H8.91833C8.35241 9.3913 7.88939 9.86087 7.88939 10.4348V22.9565C7.88939 23.5304 8.35241 24 8.91833 24H15.092C15.6579 24 16.1209 23.5304 16.1209 22.9565V10.4348C16.1209 9.86087 15.6579 9.3913 15.092 9.3913ZM12.0051 15.6522C10.8733 15.6522 9.94727 14.713 9.94727 13.5652C9.94727 12.4174 10.8733 11.4783 12.0051 11.4783C13.137 11.4783 14.063 12.4174 14.063 13.5652C14.063 14.713 13.137 15.6522 12.0051 15.6522ZM6.9119 6.31304L8.3627 7.78435C9.33082 6.80865 10.6403 6.26102 12.0051 6.26102C13.37 6.26102 14.6795 6.80865 15.6476 7.78435L17.0984 6.31304C15.7916 4.98783 13.991 4.17391 12.0051 4.17391C10.0193 4.17391 8.21865 4.98783 6.9119 6.31304ZM12.0051 0C8.87717 0 6.04759 1.28348 4 3.36L5.4508 4.8313C7.12797 3.14087 9.44309 2.08696 12.0051 2.08696C14.5672 2.08696 16.8823 3.14087 18.5492 4.84174L20 3.37043C17.9627 1.28348 15.1331 0 12.0051 0Z" fill="white"/>
</svg>
